<?xml version="1.0" standalone="no"?>
<!DOCTYPE svg PUBLIC "-//W3C//DTD SVG 20010904//EN"
 "http://www.w3.org/TR/2001/REC-SVG-20010904/DTD/svg10.dtd">
<svg version="1.0" xmlns="http://www.w3.org/2000/svg"
 width="406.000000pt" height="406.000000pt" viewBox="0 0 406.000000 406.000000"
 preserveAspectRatio="xMidYMid meet">
<metadata>
Created by potrace 1.14, written by Peter Selinger 2001-2017
</metadata>
<g transform="translate(0.000000,406.000000) scale(0.100000,-0.100000)"
fill="#000000" stroke="none">
<path d="M3027 3299 c-35 -26 -57 -69 -57 -108 0 -22 -7 -35 -27 -48 -45 -28
-183 -136 -183 -142 0 -3 -20 -27 -45 -53 -24 -26 -55 -64 -68 -85 -14 -21
-37 -52 -53 -68 -16 -17 -49 -53 -74 -80 -39 -44 -109 -110 -181 -170 -72 -61
-169 -115 -234 -130 -52 -13 -195 -17 -195 -6 0 5 5 13 10 16 6 3 10 19 10 35
0 31 -30 60 -62 60 -33 0 -18 15 50 50 37 19 79 42 94 52 14 10 32 18 40 18 7
0 24 6 38 14 14 7 51 27 83 44 32 17 64 38 72 46 23 22 19 75 -7 98 -22 19
-30 21 -103 33 -22 4 -60 11 -85 15 -25 5 -65 11 -90 15 -80 11 -88 14 -141
60 -58 50 -72 48 -83 -10 -9 -45 -20 -50 -54 -27 -115 79 -332 113 -447 70
-35 -14 -112 -64 -140 -93 -69 -69 -101 -190 -82 -307 5 -27 4 -48 0 -48 -18
0 -102 93 -119 130 -6 14 -17 37 -24 51 -16 35 -17 184 -1 234 29 87 175 235
233 235 15 0 30 5 33 10 3 6 24 10 46 10 49 0 79 15 79 38 0 42 -40 51 -127
31 -121 -29 -221 -104 -298 -224 -19 -31 -35 -63 -35 -73 0 -10 -5 -23 -11
-29 -12 -12 -7 -198 6 -248 17 -66 156 -235 193 -235 6 0 12 -4 12 -9 0 -26
153 -71 240 -71 33 0 60 -4 60 -10 0 -5 -15 -10 -34 -10 -19 0 -38 -4 -41 -10
-3 -5 -14 -10 -24 -10 -9 0 -27 -9 -39 -20 -19 -18 -35 -20 -156 -20 -127 0
-149 -3 -216 -34 -51 -23 -120 -88 -139 -131 -7 -16 -17 -38 -22 -47 -8 -16
-13 -548 -6 -548 2 0 17 6 33 14 16 8 47 22 69 31 22 10 63 28 90 41 88 40
105 45 111 31 2 -7 3 -62 2 -122 l-3 -110 -25 27 c-52 56 -126 55 -177 -2
l-23 -25 0 -467 0 -466 31 -31 c24 -25 39 -31 73 -31 49 0 89 16 108 45 10 15
14 93 16 346 l3 327 62 -2 c76 -1 90 8 234 149 137 135 132 131 155 116 10 -6
40 -16 66 -22 26 -5 65 -15 87 -21 23 -7 169 -14 350 -17 l310 -6 5 -426 c5
-446 5 -439 49 -476 8 -7 36 -13 62 -13 40 0 53 5 78 31 l31 30 2 427 3 427
45 7 c25 4 60 10 78 14 l32 6 0 -414 c0 -443 2 -464 49 -505 31 -28 90 -30
127 -7 55 36 54 31 54 587 l0 513 27 53 c34 70 43 112 53 251 5 63 14 153 20
200 6 47 14 103 17 125 3 22 9 44 14 50 5 5 9 18 9 30 0 29 46 151 78 208 15
27 39 56 53 64 25 15 27 15 70 -26 24 -22 50 -41 56 -41 7 0 13 -3 13 -8 0
-14 80 -32 145 -32 46 0 70 -5 84 -16 35 -30 87 -43 124 -30 64 23 96 49 117
97 38 89 29 110 -115 259 -62 63 -134 139 -161 169 -27 30 -83 84 -125 120
-99 86 -109 94 -141 108 -26 12 -27 16 -30 90 l-3 78 -30 2 c-18 2 -41 -5 -58
-18z m-1659 -573 c32 -20 42 -35 59 -88 17 -52 27 -66 55 -81 36 -20 58 -61
58 -110 0 -22 5 -27 25 -27 14 0 25 -4 25 -10 0 -6 -28 -10 -65 -10 -60 0 -80
9 -55 25 6 3 10 19 10 35 0 35 -39 60 -94 60 l-36 0 20 33 c30 48 25 66 -31
119 -43 40 -49 51 -39 63 17 20 24 19 68 -9z"/>
<path d="M1245 1230 c-66 -66 -125 -120 -131 -120 -32 0 -35 -29 -34 -282 1
-292 4 -319 38 -353 20 -20 34 -25 78 -25 45 0 57 4 83 31 l31 31 0 327 0 328
68 -1 c72 -1 70 -2 155 75 48 43 46 69 -5 69 -33 0 -101 20 -114 33 -22 22
-57 -1 -169 -113z"/>
</g>
</svg>
